<svg width="20" height="20" viewBox="0 0 20 20" fill="none" xmlns="http://www.w3.org/2000/svg">
<path d="M16.82 7.74L10.32 2.12C10.21 2.03 10.12 2 10.01 2H9.97C9.86 2 9.75 2.04 9.66 2.12L3.17 7.74C3.06 7.85 3 7.96 3 8.12V17.01C3 17.51 3.5 18.01 4 18.01H8.5C8.77 18.01 8.99 17.81 8.99 17.53V14.14H10.99V17.53C10.99 17.8 11.2 18.01 11.49 18.01H15.99C16.49 18.01 16.99 17.53 16.99 17.01V8.11C16.99 7.96 16.92 7.84 16.81 7.73L16.82 7.74ZM15.5 16.52C15.3667 16.52 15.3667 16.52 15.5 16.52H12.5V13.13C12.5 12.86 12.3 12.65 12.01 12.65H7.98C7.71 12.65 7.49 12.85 7.49 13.13L7.51 16.52H4.52L4.5 8.46L10 3.71L15.5 8.51V16.51V16.52Z" fill="#333333"/>
</svg>
