<svg width="56" height="56" viewBox="0 0 56 56" fill="none" xmlns="http://www.w3.org/2000/svg">
<rect x="0.5" y="0.5" width="55" height="55" rx="9.5" fill="#F6F7F9"/>
<rect x="0.5" y="0.5" width="55" height="55" rx="9.5" stroke="#DFE1E6"/>
<path d="M35 24.5L34.02 34.2977C33.8718 35.7828 33.7983 36.5248 33.46 37.086C33.1633 37.58 32.7268 37.975 32.2058 38.2212C31.6143 38.5 30.87 38.5 29.3767 38.5H26.6233C25.1312 38.5 24.3857 38.5 23.7942 38.22C23.2727 37.974 22.8359 37.579 22.5388 37.0848C22.2028 36.5248 22.1282 35.7828 21.9788 34.2977L21 24.5M29.75 32.0833V26.25M26.25 32.0833V26.25M19.25 21.5833H24.6342M24.6342 21.5833L25.0845 18.466C25.2152 17.899 25.6865 17.5 26.2278 17.5H29.7722C30.3135 17.5 30.7837 17.899 30.9155 18.466L31.3658 21.5833M24.6342 21.5833H31.3658M31.3658 21.5833H36.75" stroke="#6E717B" stroke-width="1.8" stroke-linecap="round" stroke-linejoin="round"/>
</svg>
