<svg width="32" height="32" viewBox="0 0 32 32" fill="none" xmlns="http://www.w3.org/2000/svg">
<path d="M25.1974 9.33594C26.4033 11.3375 26.9186 13.6797 26.6641 16.0026V17.3359C26.6625 18.7398 27.0304 20.1193 27.7307 21.3359M10.6641 14.6693C10.6641 13.2548 11.226 11.8982 12.2262 10.898C13.2264 9.89784 14.5829 9.33594 15.9974 9.33594C17.4119 9.33594 18.7684 9.89784 19.7686 10.898C20.7688 11.8982 21.3307 13.2548 21.3307 14.6693V16.0026C21.3307 18.8875 22.2664 21.6947 23.9974 24.0026" stroke="#A60000" stroke-width="2" stroke-linecap="round" stroke-linejoin="round"/>
<path d="M15.9993 14.6684V17.3351C15.995 21.1476 17.1583 24.87 19.3326 28.0017M10.6659 20.0017C10.9922 22.7882 11.8045 25.4958 13.0659 28.0017M6.5326 25.3351C5.63293 22.3088 5.22772 19.1572 5.3326 16.0017V14.6684C5.32748 12.7936 5.81663 10.9505 6.75074 9.32488C7.68485 7.69929 9.03092 6.34863 10.6533 5.40899C12.2757 4.46935 14.1171 3.97393 15.992 3.97266C17.8668 3.97139 19.7089 4.4643 21.3326 5.40174" stroke="#A60000" stroke-width="2" stroke-linecap="round" stroke-linejoin="round"/>
</svg>
