<svg width="32" height="32" viewBox="0 0 32 32" fill="none" xmlns="http://www.w3.org/2000/svg">
<path d="M3.33203 6.33333C3.33203 5.97971 3.47251 5.64057 3.72256 5.39052C3.9726 5.14048 4.31174 5 4.66536 5H7.33203C7.68565 5 8.02479 5.14048 8.27484 5.39052C8.52489 5.64057 8.66536 5.97971 8.66536 6.33333V11.6667C8.66536 12.0203 8.52489 12.3594 8.27484 12.6095C8.02479 12.8595 7.68565 13 7.33203 13H4.66536C4.31174 13 3.9726 12.8595 3.72256 12.6095C3.47251 12.3594 3.33203 12.0203 3.33203 11.6667V6.33333ZM20.6654 23.6667C20.6654 24.3739 20.9463 25.0522 21.4464 25.5523C21.9465 26.0524 22.6248 26.3333 23.332 26.3333C24.0393 26.3333 24.7176 26.0524 25.2176 25.5523C25.7177 25.0522 25.9987 24.3739 25.9987 23.6667C25.9987 22.9594 25.7177 22.2811 25.2176 21.781C24.7176 21.281 24.0393 21 23.332 21C22.6248 21 21.9465 21.281 21.4464 21.781C20.9463 22.2811 20.6654 22.9594 20.6654 23.6667Z" stroke="#A60000" stroke-width="2" stroke-linecap="round" stroke-linejoin="round"/>
<path d="M12.6667 7.66797H22C25.6813 7.66797 28.6667 11.8466 28.6667 17.0013V23.668H26M20.6667 23.668H10" stroke="#A60000" stroke-width="2" stroke-linecap="round" stroke-linejoin="round"/>
<path d="M20.6667 7.66797L22.6667 17.0013H28.6667M12 14.3346H22M15.3333 7.66797V14.3346M6 13.0013V27.668" stroke="#A60000" stroke-width="2" stroke-linecap="round" stroke-linejoin="round"/>
</svg>
