<svg width="32" height="32" viewBox="0 0 32 32" fill="none" xmlns="http://www.w3.org/2000/svg">
<path d="M23.3369 13.7826V7.41274C23.3369 4.82786 21.3059 2.79688 18.721 2.79688H13.2743C10.6894 2.79688 8.65845 4.82786 8.65845 7.41274V13.7826C7.45833 14.3365 6.53516 15.629 6.53516 17.1061V19.0447C6.53516 20.0602 7.36601 20.8911 8.3815 20.8911H14.936H15.0283V25.23H12.2588C10.5971 25.23 9.21236 26.6147 9.21236 28.2764C9.21236 28.8303 9.58163 29.1996 10.1355 29.1996C10.6894 29.1996 11.0587 28.8303 11.0587 28.2764C11.0587 27.6302 11.6126 27.0763 12.2588 27.0763H19.8288C20.4751 27.0763 21.029 27.6302 21.029 28.2764C21.029 28.8303 21.3982 29.1996 21.9521 29.1996C22.506 29.1996 22.8753 28.8303 22.8753 28.2764C22.8753 26.6147 21.4906 25.23 19.8288 25.23H17.0593V20.8911H23.6139C24.6293 20.8911 25.4602 20.0602 25.4602 19.0447V17.1061C25.4602 15.629 24.6293 14.4289 23.3369 13.7826ZM10.5971 7.41274C10.5971 5.84335 11.7972 4.64322 13.3666 4.64322H18.8134C20.3827 4.64322 21.5829 5.84335 21.5829 7.41274V13.4134H10.5971V7.41274ZM23.6139 19.0447H8.47382V17.1061C8.47382 16.0906 9.30467 15.2597 10.3202 15.2597H21.7675C22.783 15.2597 23.6139 16.0906 23.6139 17.1061V19.0447Z" fill="#A60000"/>
</svg>
