<svg width="32" height="32" viewBox="0 0 32 32" fill="none" xmlns="http://www.w3.org/2000/svg">
<path d="M12.8398 6.51953H7.57292C6.99115 6.51953 6.51953 6.99115 6.51953 7.57292V12.8398C6.51953 13.4216 6.99115 13.8932 7.57292 13.8932H12.8398C13.4216 13.8932 13.8932 13.4216 13.8932 12.8398V7.57292C13.8932 6.99115 13.4216 6.51953 12.8398 6.51953Z" stroke="#A60000" stroke-width="2" stroke-linecap="round"/>
<path d="M24.4271 6.51953H19.1602C18.5784 6.51953 18.1068 6.99115 18.1068 7.57292V12.8398C18.1068 13.4216 18.5784 13.8932 19.1602 13.8932H24.4271C25.0089 13.8932 25.4805 13.4216 25.4805 12.8398V7.57292C25.4805 6.99115 25.0089 6.51953 24.4271 6.51953Z" stroke="#A60000" stroke-width="2" stroke-linecap="round"/>
<path d="M24.4271 18.1068H19.1602C18.5784 18.1068 18.1068 18.5784 18.1068 19.1602V24.4271C18.1068 25.0089 18.5784 25.4805 19.1602 25.4805H24.4271C25.0089 25.4805 25.4805 25.0089 25.4805 24.4271V19.1602C25.4805 18.5784 25.0089 18.1068 24.4271 18.1068Z" stroke="#A60000" stroke-width="2" stroke-linecap="round"/>
<path d="M12.8398 18.1068H7.57292C6.99115 18.1068 6.51953 18.5784 6.51953 19.1602V24.4271C6.51953 25.0089 6.99115 25.4805 7.57292 25.4805H12.8398C13.4216 25.4805 13.8932 25.0089 13.8932 24.4271V19.1602C13.8932 18.5784 13.4216 18.1068 12.8398 18.1068Z" stroke="#A60000" stroke-width="2" stroke-linecap="round"/>
</svg>
