<svg width="31" height="31" viewBox="0 0 31 31" fill="none" xmlns="http://www.w3.org/2000/svg">
<path d="M12.4844 4.51953H18.5122" stroke="#A60000" stroke-width="1.8" stroke-linecap="round"/>
<path d="M7.75 19.0312H10.3333" stroke="#A60000" stroke-width="1.8" stroke-linecap="round"/>
<path d="M20.668 19.0312H23.2513" stroke="#A60000" stroke-width="1.8" stroke-linecap="round"/>
<path d="M1.72266 15.2859H3.87543M29.2782 15.2859H27.1254M3.87543 15.2859L7.46176 9.07422C7.64039 8.76482 7.97052 8.57422 8.32778 8.57422H22.6731C23.0303 8.57422 23.3605 8.76482 23.5391 9.07422L27.1254 15.2859M3.87543 15.2859H27.1254M3.87543 15.2859V23.0365M27.1254 15.2859V23.0365M8.61155 23.0365V25.481C8.61155 26.0332 8.16383 26.481 7.61155 26.481H4.87543C4.32315 26.481 3.87543 26.0332 3.87543 25.481V23.0365M22.3893 23.0365V25.481C22.3893 26.0332 22.837 26.481 23.3893 26.481H26.1254C26.6777 26.481 27.1254 26.0332 27.1254 25.481V23.0365M3.87543 23.0365H27.1254" stroke="#A60000" stroke-width="1.8" stroke-linecap="round" stroke-linejoin="round"/>
</svg>
