<?xml version="1.0" encoding="utf-8"?>
<!-- Generator: Adobe Illustrator 28.1.0, SVG Export Plug-In . SVG Version: 6.00 Build 0)  -->
<svg version="1.1" id="레이어_1" xmlns="http://www.w3.org/2000/svg" xmlns:xlink="http://www.w3.org/1999/xlink" x="0px"
	 y="0px" viewBox="0 0 37 37" style="enable-background:new 0 0 37 37;" xml:space="preserve">
<style type="text/css">
	.st0{fill:#9199A3;}
</style>
<path class="st0" d="M34.2,9.3H2.8c-0.6,0-1,0.4-1,1v5c0,0.6,0.4,1,1,1h3.3L3.5,29.8c-0.1,0.5,0.2,1.1,0.8,1.2c0.1,0,0.1,0,0.2,0
	c0.5,0,0.9-0.3,1-0.8l2.7-13.9h20.7l2.7,13.9c0.1,0.5,0.5,0.8,1,0.8c0.1,0,0.1,0,0.2,0c0.5-0.1,0.9-0.6,0.8-1.2l-2.6-13.5h3.3
	c0.6,0,1-0.4,1-1v-5C35.2,9.8,34.7,9.3,34.2,9.3z M33.2,14.3H3.8v-3h29.4V14.3z"/>
</svg>
