<?xml version="1.0" encoding="utf-8"?>
<!-- Generator: Adobe Illustrator 28.1.0, SVG Export Plug-In . SVG Version: 6.00 Build 0)  -->
<svg version="1.1" id="레이어_1" xmlns="http://www.w3.org/2000/svg" xmlns:xlink="http://www.w3.org/1999/xlink" x="0px"
	 y="0px" viewBox="0 0 37 37" style="enable-background:new 0 0 37 37;" xml:space="preserve">
<style type="text/css">
	.st0{fill:#9199A3;}
</style>
<g>
	<path class="st0" d="M29.4,19.7C29.5,19.7,29.5,19.7,29.4,19.7l0.1-11.2c0-1.1-0.9-2-2-2h-2V6c0-0.8-0.7-1.5-1.5-1.5
		S22.5,5.2,22.5,6v0.5h-10V6c0-0.8-0.7-1.5-1.5-1.5S9.5,5.2,9.5,6v0.5h-2c-1.1,0-2,0.9-2,2v20c0,1.1,0.9,2,2,2h13.1c0,0,0,0,0,0
		c1.3,1.3,3,2,4.9,2c3.9,0,7-3.1,7-7C32.5,23.1,31.3,21,29.4,19.7z M7.5,28.5v-20h2V9c0,0.8,0.7,1.5,1.5,1.5s1.5-0.7,1.5-1.5V8.5h10
		V9c0,0.8,0.7,1.5,1.5,1.5s1.5-0.7,1.5-1.5V8.5h2v10.3c0,0,0,0,0,0c-0.6-0.2-1.3-0.3-2-0.3c-3.9,0-7,3.1-7,7c0,1.1,0.3,2.2,0.7,3.1
		c0,0,0-0.1-0.1-0.1H7.5z M19.8,29.5c0,0.1,0.1,0.1,0.1,0.2C19.8,29.6,19.8,29.6,19.8,29.5z M25.5,30.5c-2.8,0-5-2.2-5-5s2.2-5,5-5
		s5,2.2,5,5S28.3,30.5,25.5,30.5z"/>
	<path class="st0" d="M29,22.9c-0.3-0.3-0.8-0.2-1.1,0.1L25,26.4l-2-1.8c-0.3-0.3-0.8-0.3-1.1,0.1c-0.3,0.3-0.3,0.8,0.1,1.1l2.6,2.3
		c0.1,0.1,0.3,0.2,0.5,0.2c0,0,0,0,0,0c0.2,0,0.4-0.1,0.5-0.3l3.4-4C29.3,23.7,29.3,23.2,29,22.9z"/>
</g>
</svg>
