<?xml version="1.0" encoding="UTF-8"?>
<svg id="_레이어_1" data-name="레이어_1" xmlns="http://www.w3.org/2000/svg" version="1.1" viewBox="0 0 36 36">
  <!-- Generator: Adobe Illustrator 30.1.0, SVG Export Plug-In . SVG Version: 2.1.1 Build 136)  -->
  <defs>
    <style>
      .st0 {
        fill: #d71635;
      }
    </style>
  </defs>
  <polygon class="st0" points="8.7 9 15.8 9 15.8 7 6.7 7 6.7 13.4 8.7 13.4 8.7 9"/>
  <polygon class="st0" points="26.9 13.4 28.9 13.4 28.9 7 19.8 7 19.8 9 26.9 9 26.9 13.4"/>
  <polygon class="st0" points="8.7 22.8 6.7 22.8 6.7 29.2 15.8 29.2 15.8 27.2 8.7 27.2 8.7 22.8"/>
  <polygon class="st0" points="26.9 27.2 19.8 27.2 19.8 29.2 28.9 29.2 28.9 22.8 26.9 22.8 26.9 27.2"/>
  <rect class="st0" x="5" y="17.2" width="26" height="2"/>
</svg>