<?xml version="1.0" encoding="utf-8"?>
<!-- Generator: Adobe Illustrator 28.1.0, SVG Export Plug-In . SVG Version: 6.00 Build 0)  -->
<svg version="1.1" id="레이어_1" xmlns="http://www.w3.org/2000/svg" xmlns:xlink="http://www.w3.org/1999/xlink" x="0px"
	 y="0px" viewBox="0 0 37 37" style="enable-background:new 0 0 37 37;" xml:space="preserve">
<style type="text/css">
	.st0{fill:#9199A3;}
</style>
<path class="st0" d="M26.5,16.1V9.2c0-2.8-2.2-5-5-5h-5.9c-2.8,0-5,2.2-5,5v6.9c-1.3,0.6-2.3,2-2.3,3.6v2.1c0,1.1,0.9,2,2,2h7.1h0.1
	v4.7h-3c-1.8,0-3.3,1.5-3.3,3.3c0,0.6,0.4,1,1,1s1-0.4,1-1c0-0.7,0.6-1.3,1.3-1.3h8.2c0.7,0,1.3,0.6,1.3,1.3c0,0.6,0.4,1,1,1
	s1-0.4,1-1c0-1.8-1.5-3.3-3.3-3.3h-3v-4.7h7.1c1.1,0,2-0.9,2-2v-2.1C28.8,18.1,27.9,16.8,26.5,16.1z M12.7,9.2c0-1.7,1.3-3,3-3h5.9
	c1.7,0,3,1.3,3,3v6.5H12.7V9.2z M26.8,21.8H10.4v-2.1c0-1.1,0.9-2,2-2h12.4c1.1,0,2,0.9,2,2V21.8z"/>
</svg>
