<svg width="36" height="36" viewBox="0 0 36 36" fill="none" xmlns="http://www.w3.org/2000/svg">
<path d="M14.5 5.25H21.5" stroke="#9199A3" stroke-width="2" stroke-linecap="round"/>
<path d="M9 22.0996H12" stroke="#9199A3" stroke-width="2" stroke-linecap="round"/>
<path d="M24 22.0996H27" stroke="#9199A3" stroke-width="2" stroke-linecap="round"/>
<path d="M2 17.7493H4.5M34 17.7493H31.5M4.5 17.7493L8.71132 10.4551C8.88996 10.1457 9.22008 9.95508 9.57735 9.95508H26.4226C26.7799 9.95508 27.11 10.1457 27.2887 10.4551L31.5 17.7493M4.5 17.7493H31.5M4.5 17.7493V26.75M31.5 17.7493V26.75M10 26.75V29.75C10 30.3023 9.55228 30.75 9 30.75H5.5C4.94772 30.75 4.5 30.3023 4.5 29.75V26.75M26 26.75V29.75C26 30.3023 26.4477 30.75 27 30.75H30.5C31.0523 30.75 31.5 30.3023 31.5 29.75V26.75M4.5 26.75H31.5" stroke="#9199A3" stroke-width="2" stroke-linecap="round" stroke-linejoin="round"/>
</svg>
