<?xml version="1.0" encoding="UTF-8"?>
<svg id="_레이어_1" data-name="레이어_1" xmlns="http://www.w3.org/2000/svg" version="1.1" viewBox="0 0 37 37">
  <!-- Generator: Adobe Illustrator 30.1.0, SVG Export Plug-In . SVG Version: 2.1.1 Build 136)  -->
  <defs>
    <style>
      .st0 {
        fill: #d71635;
      }
    </style>
  </defs>
  <path class="st0" d="M29.4,19.7q.1,0,0,0v-11.2c.1-1.1-.8-2-1.9-2h-2v-.5c0-.8-.7-1.5-1.5-1.5s-1.5.7-1.5,1.5v.5h-10v-.5c0-.8-.7-1.5-1.5-1.5s-1.5.7-1.5,1.5v.5h-2c-1.1,0-2,.9-2,2v20c0,1.1.9,2,2,2h13.1c1.3,1.3,3,2,4.9,2,3.9,0,7-3.1,7-7s-1.2-4.5-3.1-5.8ZM7.5,28.5V8.5h2v.5c0,.8.7,1.5,1.5,1.5s1.5-.7,1.5-1.5v-.5h10v.5c0,.8.7,1.5,1.5,1.5s1.5-.7,1.5-1.5v-.5h2v10.3h0c-.6-.2-1.3-.3-2-.3-3.9,0-7,3.1-7,7s.3,2.2.7,3.1c0,0,0-.1-.1-.1H7.5ZM19.8,29.5c0,.1.1.1.1.2q-.1-.1-.1-.2ZM25.5,30.5c-2.8,0-5-2.2-5-5s2.2-5,5-5,5,2.2,5,5-2.2,5-5,5Z"/>
  <path class="st0" d="M29,22.9c-.3-.3-.8-.2-1.1.1l-2.9,3.4-2-1.8c-.3-.3-.8-.3-1.1.1-.3.3-.3.8.1,1.1l2.6,2.3c.1.1.3.2.5.2h0c.2,0,.4-.1.5-.3l3.4-4c.3-.3.3-.8,0-1.1Z"/>
</svg>