<?xml version="1.0" encoding="UTF-8"?>
<svg id="_레이어_1" data-name="레이어_1" xmlns="http://www.w3.org/2000/svg" version="1.1" viewBox="0 0 37 37">
  <!-- Generator: Adobe Illustrator 30.1.0, SVG Export Plug-In . SVG Version: 2.1.1 Build 136)  -->
  <defs>
    <style>
      .st0 {
        fill: #d71635;
      }
    </style>
  </defs>
  <path class="st0" d="M26.5,16.1v-6.9c0-2.8-2.2-5-5-5h-5.9c-2.8,0-5,2.2-5,5v6.9c-1.3.6-2.3,2-2.3,3.6v2.1c0,1.1.9,2,2,2h7.2v4.7h-3c-1.8,0-3.3,1.5-3.3,3.3s.4,1,1,1,1-.4,1-1,.6-1.3,1.3-1.3h8.2c.7,0,1.3.6,1.3,1.3s.4,1,1,1,1-.4,1-1c0-1.8-1.5-3.3-3.3-3.3h-3v-4.7h7.1c1.1,0,2-.9,2-2v-2.1c0-1.6-.9-2.9-2.3-3.6ZM12.7,9.2c0-1.7,1.3-3,3-3h5.9c1.7,0,3,1.3,3,3v6.5h-11.9v-6.5ZM26.8,21.8H10.4v-2.1c0-1.1.9-2,2-2h12.4c1.1,0,2,.9,2,2v2.1Z"/>
</svg>