<svg width="37" height="37" viewBox="0 0 37 37" fill="none" xmlns="http://www.w3.org/2000/svg">
<path d="M34.2 9.29999H2.8C2.2 9.29999 1.8 9.69999 1.8 10.3V15.3C1.8 15.9 2.2 16.3 2.8 16.3H6.1L3.5 29.8C3.4 30.3 3.7 30.9 4.3 31C4.4 31 4.4 31 4.5 31C5 31 5.4 30.7 5.5 30.2L8.2 16.3H28.9L31.6 30.2C31.7 30.7 32.1 31 32.6 31C32.7 31 32.7 31 32.8 31C33.3 30.9 33.7 30.4 33.6 29.8L31 16.3H34.3C34.9 16.3 35.3 15.9 35.3 15.3V10.3C35.2 9.79999 34.7 9.29999 34.2 9.29999ZM33.2 14.3H3.8V11.3H33.2V14.3Z" fill="#D71635"/>
</svg>
