<?xml version="1.0" encoding="UTF-8"?>
<svg xmlns="http://www.w3.org/2000/svg" viewBox="0 0 184.14 102.45">
  <defs>
    <style>
      .cls-1 {
        fill: #3d3935;
      }

      .cls-2 {
        isolation: isolate;
      }

      .cls-3 {
        fill: #b5b5b6;
      }

      .cls-4 {
        fill: #83b642;
      }

      .cls-4, .cls-5 {
        mix-blend-mode: multiply;
      }

      .cls-6 {
        fill: #ea5504;
      }

      .cls-7 {
        fill: #f39800;
      }

      .cls-5 {
        fill: #0099d9;
      }
    </style>
  </defs>
  <g class="cls-2">
    <g id="Dimensions">
      <g>
        <g>
          <path class="cls-1" d="M56.64,95.03c-7.64,0-10.68-5.31-10.68-12.84,0-6.5,3.04-12.33,10.68-12.33h12.8c2.41-.01,4.34-.07,5.84-2.69l2.39-4.49h-23.09c-10.47,0-18.42,8.61-18.42,19.79,0,10.05,6.43,18.17,15.41,19.58,0,0,.71.15,2.65.15h9.1c7.36,0,14.32-4.15,14.32-12.44s-4.75-11.74-11.54-11.74h-4.55c-2.4,0-4.34.07-5.84,2.68l-2.37,4.5h9.95c3.39,0,4.97,2,4.97,4.74s-1.63,5.1-4.91,5.1h-6.7Z"/>
          <path class="cls-1" d="M12.12,85.23c-.22-.28-.71-.7-1.47-.43-.47.15-.61.56-.66.89v16.37H.75v-39.21h9.24v16.63l14.47-13.74c1.36-1.27,2.35-2.02,3.73-2.43.93-.28,2.01-.41,3.49-.46h6.18l-18.84,17.44,18.02,21.77h-7.12c-4.53,0-6.3-2.6-8.69-5.54-1.64-2.01-8.51-10.55-9.11-11.3Z"/>
          <path class="cls-1" d="M110.53,102.2h0c2.4-.01,4.34-.07,5.84-2.69l2.39-4.48h-16.5c-7.65,0-10.7-5.31-10.7-12.84,0-6.5,3.05-12.33,10.7-12.33h8.27c2.4-.01,4.34-.07,5.84-2.69l2.39-4.49h-18.56c-10.49,0-18.43,8.61-18.43,19.79,0,10.05,6.43,18.17,15.4,19.58,0,0,.73.15,2.66.15h10.7Z"/>
        </g>
        <g>
          <path class="cls-3" d="M153.11,42.56h-.03c-1.9,8.83-6.14,22.85-6.12,29.38.03,6.78,1.39,10.14,3.36,11.58.92.67,1.97.92,3.1.92,3.53-.02,6.39-2.61,6.36-12.54-.02-6.54-4.68-20.5-6.67-29.33"/>
          <path class="cls-3" d="M153.11,42.44c1.92-8.86,6.47-22.86,6.44-29.38-.04-9.94-2.91-12.52-6.45-12.5-3.54,0-6.39,2.62-6.36,12.55.03,6.52,4.37,20.5,6.35,29.33h.02Z"/>
          <g>
            <path class="cls-6" d="M156.84,51.61l-.02.02c3.67,8.26,8.48,22.09,12.33,27.36,4.01,5.47,7.08,7.39,9.53,7.39,1.14,0,2.14-.42,3.04-1.07,2.85-2.09,3.64-5.87-2.23-13.89-3.85-5.27-15.85-13.83-22.64-19.8"/>
            <path class="cls-7" d="M156.77,51.51c-3.65-8.28-8.21-22.29-12.08-27.55-5.86-8.01-9.71-8.41-12.56-6.32-2.86,2.09-3.63,5.88,2.25,13.9,3.85,5.26,15.58,14,22.37,19.99h.02Z"/>
          </g>
          <path class="cls-4" d="M119.52,35.95l-.02.02c6.32,6.47,15.68,17.73,21.13,21.32,5.68,3.72,9.23,4.44,11.51,3.59,1.06-.39,1.86-1.14,2.47-2.07,1.94-2.95,1.35-6.77-6.94-12.23-5.46-3.59-19.69-7.41-28.15-10.64"/>
          <path class="cls-5" d="M119.42,35.89c-6.32-6.49-15.49-18.01-20.95-21.59-8.3-5.46-12.05-4.48-13.99-1.52-1.94,2.95-1.34,6.77,6.96,12.23,5.46,3.57,19.5,7.67,27.96,10.89h.02Z"/>
        </g>
      </g>
    </g>
  </g>
</svg>